<?xml version="1.0" encoding="utf-8"?>
<!-- Generator: Adobe Illustrator 25.2.1, SVG Export Plug-In . SVG Version: 6.00 Build 0)  -->
<svg version="1.1" id="Layer_1" xmlns="http://www.w3.org/2000/svg" xmlns:xlink="http://www.w3.org/1999/xlink" x="0px" y="0px"
	 viewBox="0 0 1815 1815" style="enable-background:new 0 0 1815 1815;" xml:space="preserve">
<g transform="translate(110,110)">
	<g transform="translate(440,0) scale(0.55,0.55)">
		<g transform="">
			<g>
				<polygon points="0,12 88,0 100,88 12,100 				"/>
			</g>
		</g>
	</g>
	<g transform="translate(495,0) scale(0.55,0.55)">
		<g transform="">
			<g>
				<polygon points="22,0 0,78 78,100 100,22 				"/>
			</g>
		</g>
	</g>
	<g transform="translate(660,0) scale(0.55,0.55)">
		<g transform="">
			<g>
				<polygon points="0,5 95,0 100,95 5,100 				"/>
			</g>
		</g>
	</g>
	<g transform="translate(825,0) scale(0.55,0.55)">
		<g transform="">
			<g>
				<polygon points="0,12 88,0 100,88 12,100 				"/>
			</g>
		</g>
	</g>
	<g transform="translate(880,0) scale(0.55,0.55)">
		<g transform="">
			<polygon points="8,4 4,92 92,96 96,8 			"/>
		</g>
	</g>
	<g transform="translate(935,0) scale(0.55,0.55)">
		<g transform="">
			<polygon points="8,4 4,92 92,96 96,8 			"/>
		</g>
	</g>
	<g transform="translate(990,0) scale(0.55,0.55)">
		<g transform="">
			<polygon points="8,4 4,92 92,96 96,8 			"/>
		</g>
	</g>
	<g transform="translate(1045,0) scale(0.55,0.55)">
		<g transform="">
			<polygon points="8,4 4,92 92,96 96,8 			"/>
		</g>
	</g>
	<g transform="translate(1100,0) scale(0.55,0.55)">
		<g transform="">
			<g>
				<polygon points="22,0 0,78 78,100 100,22 				"/>
			</g>
		</g>
	</g>
	<g transform="translate(440,55) scale(0.55,0.55)">
		<g transform="">
			<g>
				<polygon points="13,0 0,87 87,100 100,13 				"/>
			</g>
		</g>
	</g>
	<g transform="translate(495,55) scale(0.55,0.55)">
		<g transform="">
			<g>
				<polygon points="0,17 83,0 100,83 17,100 				"/>
			</g>
		</g>
	</g>
	<g transform="translate(605,55) scale(0.55,0.55)">
		<g transform="">
			<g>
				<polygon points="5,25 75,5 95,75 25,95 				"/>
			</g>
		</g>
	</g>
	<g transform="translate(660,55) scale(0.55,0.55)">
		<g transform="">
			<polygon points="8,4 4,92 92,96 96,8 			"/>
		</g>
	</g>
	<g transform="translate(770,55) scale(0.55,0.55)">
		<g transform="">
			<g>
				<polygon points="0,12 88,0 100,88 12,100 				"/>
			</g>
		</g>
	</g>
	<g transform="translate(825,55) scale(0.55,0.55)">
		<g transform="">
			<polygon points="8,4 4,92 92,96 96,8 			"/>
		</g>
	</g>
	<g transform="translate(935,55) scale(0.55,0.55)">
		<g transform="">
			<g>
				<polygon points="0,10 90,0 100,90 10,100 				"/>
			</g>
		</g>
	</g>
	<g transform="translate(1100,55) scale(0.55,0.55)">
		<g transform="">
			<polygon points="8,4 4,92 92,96 96,8 			"/>
		</g>
	</g>
	<g transform="translate(550,110) scale(0.55,0.55)">
		<g transform="">
			<g>
				<polygon points="0,5 95,0 100,95 5,100 				"/>
			</g>
		</g>
	</g>
	<g transform="translate(660,110) scale(0.55,0.55)">
		<g transform="">
			<g>
				<polygon points="13,0 0,87 87,100 100,13 				"/>
			</g>
		</g>
	</g>
	<g transform="translate(715,110) scale(0.55,0.55)">
		<g transform="">
			<polygon points="8,4 4,92 92,96 96,8 			"/>
		</g>
	</g>
	<g transform="translate(770,110) scale(0.55,0.55)">
		<g transform="">
			<polygon points="8,4 4,92 92,96 96,8 			"/>
		</g>
	</g>
	<g transform="translate(825,110) scale(0.55,0.55)">
		<g transform="">
			<g>
				<polygon points="0,17 83,0 100,83 17,100 				"/>
			</g>
		</g>
	</g>
	<g transform="translate(990,110) scale(0.55,0.55)">
		<g transform="">
			<g>
				<polygon points="0,15 85,0 100,85 15,100 				"/>
			</g>
		</g>
	</g>
	<g transform="translate(1100,110) scale(0.55,0.55)">
		<g transform="">
			<g>
				<polygon points="0,10 90,0 100,90 10,100 				"/>
			</g>
		</g>
	</g>
	<g transform="translate(440,165) scale(0.55,0.55)">
		<g transform="">
			<g>
				<polygon points="0,15 85,0 100,85 15,100 				"/>
			</g>
		</g>
	</g>
	<g transform="translate(550,165) scale(0.55,0.55)">
		<g transform="">
			<polygon points="8,4 4,92 92,96 96,8 			"/>
		</g>
	</g>
	<g transform="translate(880,165) scale(0.55,0.55)">
		<g transform="">
			<g>
				<polygon points="5,25 75,5 95,75 25,95 				"/>
			</g>
		</g>
	</g>
	<g transform="translate(935,165) scale(0.55,0.55)">
		<g transform="">
			<g>
				<polygon points="22,0 0,78 78,100 100,22 				"/>
			</g>
		</g>
	</g>
	<g transform="translate(1045,165) scale(0.55,0.55)">
		<g transform="">
			<g>
				<polygon points="0,5 95,0 100,95 5,100 				"/>
			</g>
		</g>
	</g>
	<g transform="translate(495,220) scale(0.55,0.55)">
		<g transform="">
			<g>
				<polygon points="0,12 88,0 100,88 12,100 				"/>
			</g>
		</g>
	</g>
	<g transform="translate(550,220) scale(0.55,0.55)">
		<g transform="">
			<polygon points="8,4 4,92 92,96 96,8 			"/>
		</g>
	</g>
	<g transform="translate(605,220) scale(0.55,0.55)">
		<g transform="">
			<g>
				<polygon points="15,5 5,85 85,95 95,15 				"/>
			</g>
		</g>
	</g>
	<g transform="translate(715,220) scale(0.55,0.55)">
		<g transform="">
			<g>
				<polygon points="0,15 85,0 100,85 15,100 				"/>
			</g>
		</g>
	</g>
	<g transform="translate(935,220) scale(0.55,0.55)">
		<g transform="">
			<g>
				<polygon points="13,0 0,87 87,100 100,13 				"/>
			</g>
		</g>
	</g>
	<g transform="translate(990,220) scale(0.55,0.55)">
		<g transform="">
			<polygon points="8,4 4,92 92,96 96,8 			"/>
		</g>
	</g>
	<g transform="translate(1045,220) scale(0.55,0.55)">
		<g transform="">
			<polygon points="8,4 4,92 92,96 96,8 			"/>
		</g>
	</g>
	<g transform="translate(495,275) scale(0.55,0.55)">
		<g transform="">
			<g>
				<polygon points="0,10 90,0 100,90 10,100 				"/>
			</g>
		</g>
	</g>
	<g transform="translate(770,275) scale(0.55,0.55)">
		<g transform="">
			<g>
				<polygon points="0,5 95,0 100,95 5,100 				"/>
			</g>
		</g>
	</g>
	<g transform="translate(990,275) scale(0.55,0.55)">
		<g transform="">
			<polygon points="8,4 4,92 92,96 96,8 			"/>
		</g>
	</g>
	<g transform="translate(1045,275) scale(0.55,0.55)">
		<g transform="">
			<polygon points="8,4 4,92 92,96 96,8 			"/>
		</g>
	</g>
	<g transform="translate(1100,275) scale(0.55,0.55)">
		<g transform="">
			<g>
				<polygon points="22,0 0,78 78,100 100,22 				"/>
			</g>
		</g>
	</g>
	<g transform="translate(440,330) scale(0.55,0.55)">
		<g transform="">
			<g>
				<polygon points="0,5 95,0 100,95 5,100 				"/>
			</g>
		</g>
	</g>
	<g transform="translate(550,330) scale(0.55,0.55)">
		<g transform="">
			<g>
				<polygon points="0,5 95,0 100,95 5,100 				"/>
			</g>
		</g>
	</g>
	<g transform="translate(660,330) scale(0.55,0.55)">
		<g transform="">
			<g>
				<polygon points="0,15 85,0 100,85 15,100 				"/>
			</g>
		</g>
	</g>
	<g transform="translate(770,330) scale(0.55,0.55)">
		<g transform="">
			<polygon points="8,4 4,92 92,96 96,8 			"/>
		</g>
	</g>
	<g transform="translate(880,330) scale(0.55,0.55)">
		<g transform="">
			<g>
				<polygon points="0,15 85,0 100,85 15,100 				"/>
			</g>
		</g>
	</g>
	<g transform="translate(990,330) scale(0.55,0.55)">
		<g transform="">
			<g>
				<polygon points="0,10 90,0 100,90 10,100 				"/>
			</g>
		</g>
	</g>
	<g transform="translate(1100,330) scale(0.55,0.55)">
		<g transform="">
			<g>
				<polygon points="0,10 90,0 100,90 10,100 				"/>
			</g>
		</g>
	</g>
	<g transform="translate(440,385) scale(0.55,0.55)">
		<g transform="">
			<g>
				<polygon points="13,0 0,87 87,100 100,13 				"/>
			</g>
		</g>
	</g>
	<g transform="translate(495,385) scale(0.55,0.55)">
		<g transform="">
			<polygon points="8,4 4,92 92,96 96,8 			"/>
		</g>
	</g>
	<g transform="translate(550,385) scale(0.55,0.55)">
		<g transform="">
			<polygon points="8,4 4,92 92,96 96,8 			"/>
		</g>
	</g>
	<g transform="translate(605,385) scale(0.55,0.55)">
		<g transform="">
			<g>
				<polygon points="22,0 0,78 78,100 100,22 				"/>
			</g>
		</g>
	</g>
	<g transform="translate(715,385) scale(0.55,0.55)">
		<g transform="">
			<g>
				<polygon points="0,12 88,0 100,88 12,100 				"/>
			</g>
		</g>
	</g>
	<g transform="translate(770,385) scale(0.55,0.55)">
		<g transform="">
			<polygon points="8,4 4,92 92,96 96,8 			"/>
		</g>
	</g>
	<g transform="translate(935,385) scale(0.55,0.55)">
		<g transform="">
			<g>
				<polygon points="0,5 95,0 100,95 5,100 				"/>
			</g>
		</g>
	</g>
	<g transform="translate(0,440) scale(0.55,0.55)">
		<g transform="">
			<g>
				<polygon points="0,5 95,0 100,95 5,100 				"/>
			</g>
		</g>
	</g>
	<g transform="translate(110,440) scale(0.55,0.55)">
		<g transform="">
			<g>
				<polygon points="0,12 88,0 100,88 12,100 				"/>
			</g>
		</g>
	</g>
	<g transform="translate(165,440) scale(0.55,0.55)">
		<g transform="">
			<g>
				<polygon points="15,5 5,85 85,95 95,15 				"/>
			</g>
		</g>
	</g>
	<g transform="translate(275,440) scale(0.55,0.55)">
		<g transform="">
			<g>
				<polygon points="0,12 88,0 100,88 12,100 				"/>
			</g>
		</g>
	</g>
	<g transform="translate(330,440) scale(0.55,0.55)">
		<g transform="">
			<polygon points="8,4 4,92 92,96 96,8 			"/>
		</g>
	</g>
	<g transform="translate(385,440) scale(0.55,0.55)">
		<g transform="">
			<g>
				<polygon points="22,0 0,78 78,100 100,22 				"/>
			</g>
		</g>
	</g>
	<g transform="translate(495,440) scale(0.55,0.55)">
		<g transform="">
			<polygon points="8,4 4,92 92,96 96,8 			"/>
		</g>
	</g>
	<g transform="translate(605,440) scale(0.55,0.55)">
		<g transform="">
			<g>
				<polygon points="0,10 90,0 100,90 10,100 				"/>
			</g>
		</g>
	</g>
	<g transform="translate(715,440) scale(0.55,0.55)">
		<g transform="">
			<g>
				<polygon points="13,0 0,87 87,100 100,13 				"/>
			</g>
		</g>
	</g>
	<g transform="translate(770,440) scale(0.55,0.55)">
		<g transform="">
			<g>
				<polygon points="0,17 83,0 100,83 17,100 				"/>
			</g>
		</g>
	</g>
	<g transform="translate(880,440) scale(0.55,0.55)">
		<g transform="">
			<g>
				<polygon points="0,12 88,0 100,88 12,100 				"/>
			</g>
		</g>
	</g>
	<g transform="translate(935,440) scale(0.55,0.55)">
		<g transform="">
			<polygon points="8,4 4,92 92,96 96,8 			"/>
		</g>
	</g>
	<g transform="translate(990,440) scale(0.55,0.55)">
		<g transform="">
			<polygon points="8,4 4,92 92,96 96,8 			"/>
		</g>
	</g>
	<g transform="translate(1045,440) scale(0.55,0.55)">
		<g transform="">
			<polygon points="8,4 4,92 92,96 96,8 			"/>
		</g>
	</g>
	<g transform="translate(1100,440) scale(0.55,0.55)">
		<g transform="">
			<g>
				<polygon points="22,0 0,78 78,100 100,22 				"/>
			</g>
		</g>
	</g>
	<g transform="translate(1210,440) scale(0.55,0.55)">
		<g transform="">
			<g>
				<polygon points="0,5 95,0 100,95 5,100 				"/>
			</g>
		</g>
	</g>
	<g transform="translate(1375,440) scale(0.55,0.55)">
		<g transform="">
			<g>
				<polygon points="0,15 85,0 100,85 15,100 				"/>
			</g>
		</g>
	</g>
	<g transform="translate(1485,440) scale(0.55,0.55)">
		<g transform="">
			<g>
				<polygon points="5,25 75,5 95,75 25,95 				"/>
			</g>
		</g>
	</g>
	<g transform="translate(1540,440) scale(0.55,0.55)">
		<g transform="">
			<g>
				<polygon points="22,0 0,78 78,100 100,22 				"/>
			</g>
		</g>
	</g>
	<g transform="translate(0,495) scale(0.55,0.55)">
		<g transform="">
			<polygon points="8,4 4,92 92,96 96,8 			"/>
		</g>
	</g>
	<g transform="translate(110,495) scale(0.55,0.55)">
		<g transform="">
			<g>
				<polygon points="0,10 90,0 100,90 10,100 				"/>
			</g>
		</g>
	</g>
	<g transform="translate(220,495) scale(0.55,0.55)">
		<g transform="">
			<g>
				<polygon points="5,25 75,5 95,75 25,95 				"/>
			</g>
		</g>
	</g>
	<g transform="translate(275,495) scale(0.55,0.55)">
		<g transform="">
			<g>
				<polygon points="0,17 83,0 100,83 17,100 				"/>
			</g>
		</g>
	</g>
	<g transform="translate(385,495) scale(0.55,0.55)">
		<g transform="">
			<g>
				<polygon points="0,10 90,0 100,90 10,100 				"/>
			</g>
		</g>
	</g>
	<g transform="translate(495,495) scale(0.55,0.55)">
		<g transform="">
			<g>
				<polygon points="13,0 0,87 87,100 100,13 				"/>
			</g>
		</g>
	</g>
	<g transform="translate(550,495) scale(0.55,0.55)">
		<g transform="">
			<g>
				<polygon points="15,5 5,85 85,95 95,15 				"/>
			</g>
		</g>
	</g>
	<g transform="translate(660,495) scale(0.55,0.55)">
		<g transform="">
			<g>
				<polygon points="0,5 95,0 100,95 5,100 				"/>
			</g>
		</g>
	</g>
	<g transform="translate(825,495) scale(0.55,0.55)">
		<g transform="">
			<g>
				<polygon points="0,12 88,0 100,88 12,100 				"/>
			</g>
		</g>
	</g>
	<g transform="translate(880,495) scale(0.55,0.55)">
		<g transform="">
			<polygon points="8,4 4,92 92,96 96,8 			"/>
		</g>
	</g>
	<g transform="translate(935,495) scale(0.55,0.55)">
		<g transform="">
			<polygon points="8,4 4,92 92,96 96,8 			"/>
		</g>
	</g>
	<g transform="translate(1045,495) scale(0.55,0.55)">
		<g transform="">
			<g>
				<polygon points="13,0 0,87 87,100 100,13 				"/>
			</g>
		</g>
	</g>
	<g transform="translate(1100,495) scale(0.55,0.55)">
		<g transform="">
			<polygon points="8,4 4,92 92,96 96,8 			"/>
		</g>
	</g>
	<g transform="translate(1155,495) scale(0.55,0.55)">
		<g transform="">
			<polygon points="8,4 4,92 92,96 96,8 			"/>
		</g>
	</g>
	<g transform="translate(1210,495) scale(0.55,0.55)">
		<g transform="">
			<polygon points="8,4 4,92 92,96 96,8 			"/>
		</g>
	</g>
	<g transform="translate(1265,495) scale(0.55,0.55)">
		<g transform="">
			<polygon points="8,4 4,92 92,96 96,8 			"/>
		</g>
	</g>
	<g transform="translate(1320,495) scale(0.55,0.55)">
		<g transform="">
			<g>
				<polygon points="15,5 5,85 85,95 95,15 				"/>
			</g>
		</g>
	</g>
	<g transform="translate(1540,495) scale(0.55,0.55)">
		<g transform="">
			<g>
				<polygon points="0,10 90,0 100,90 10,100 				"/>
			</g>
		</g>
	</g>
	<g transform="translate(0,550) scale(0.55,0.55)">
		<g transform="">
			<g>
				<polygon points="13,0 0,87 87,100 100,13 				"/>
			</g>
		</g>
	</g>
	<g transform="translate(55,550) scale(0.55,0.55)">
		<g transform="">
			<g>
				<polygon points="22,0 0,78 78,100 100,22 				"/>
			</g>
		</g>
	</g>
	<g transform="translate(165,550) scale(0.55,0.55)">
		<g transform="">
			<g>
				<polygon points="0,15 85,0 100,85 15,100 				"/>
			</g>
		</g>
	</g>
	<g transform="translate(330,550) scale(0.55,0.55)">
		<g transform="">
			<g>
				<polygon points="0,15 85,0 100,85 15,100 				"/>
			</g>
		</g>
	</g>
	<g transform="translate(440,550) scale(0.55,0.55)">
		<g transform="">
			<g>
				<polygon points="0,5 95,0 100,95 5,100 				"/>
			</g>
		</g>
	</g>
	<g transform="translate(660,550) scale(0.55,0.55)">
		<g transform="">
			<polygon points="8,4 4,92 92,96 96,8 			"/>
		</g>
	</g>
	<g transform="translate(770,550) scale(0.55,0.55)">
		<g transform="">
			<g>
				<polygon points="0,12 88,0 100,88 12,100 				"/>
			</g>
		</g>
	</g>
	<g transform="translate(825,550) scale(0.55,0.55)">
		<g transform="">
			<polygon points="8,4 4,92 92,96 96,8 			"/>
		</g>
	</g>
	<g transform="translate(935,550) scale(0.55,0.55)">
		<g transform="">
			<g>
				<polygon points="0,10 90,0 100,90 10,100 				"/>
			</g>
		</g>
	</g>
	<g transform="translate(1210,550) scale(0.55,0.55)">
		<g transform="">
			<polygon points="8,4 4,92 92,96 96,8 			"/>
		</g>
	</g>
	<g transform="translate(1265,550) scale(0.55,0.55)">
		<g transform="">
			<polygon points="8,4 4,92 92,96 96,8 			"/>
		</g>
	</g>
	<g transform="translate(1430,550) scale(0.55,0.55)">
		<g transform="">
			<g>
				<polygon points="5,25 75,5 95,75 25,95 				"/>
			</g>
		</g>
	</g>
	<g transform="translate(1485,550) scale(0.55,0.55)">
		<g transform="">
			<g>
				<polygon points="15,5 5,85 85,95 95,15 				"/>
			</g>
		</g>
	</g>
	<g transform="translate(55,605) scale(0.55,0.55)">
		<g transform="">
			<g>
				<polygon points="13,0 0,87 87,100 100,13 				"/>
			</g>
		</g>
	</g>
	<g transform="translate(110,605) scale(0.55,0.55)">
		<g transform="">
			<g>
				<polygon points="22,0 0,78 78,100 100,22 				"/>
			</g>
		</g>
	</g>
	<g transform="translate(220,605) scale(0.55,0.55)">
		<g transform="">
			<g>
				<polygon points="0,15 85,0 100,85 15,100 				"/>
			</g>
		</g>
	</g>
	<g transform="translate(440,605) scale(0.55,0.55)">
		<g transform="">
			<polygon points="8,4 4,92 92,96 96,8 			"/>
		</g>
	</g>
	<g transform="translate(495,605) scale(0.55,0.55)">
		<g transform="">
			<polygon points="8,4 4,92 92,96 96,8 			"/>
		</g>
	</g>
	<g transform="translate(550,605) scale(0.55,0.55)">
		<g transform="">
			<polygon points="8,4 4,92 92,96 96,8 			"/>
		</g>
	</g>
	<g transform="translate(605,605) scale(0.55,0.55)">
		<g transform="">
			<polygon points="8,4 4,92 92,96 96,8 			"/>
		</g>
	</g>
	<g transform="translate(660,605) scale(0.55,0.55)">
		<g transform="">
			<polygon points="8,4 4,92 92,96 96,8 			"/>
		</g>
	</g>
	<g transform="translate(715,605) scale(0.55,0.55)">
		<g transform="">
			<polygon points="8,4 4,92 92,96 96,8 			"/>
		</g>
	</g>
	<g transform="translate(770,605) scale(0.55,0.55)">
		<g transform="">
			<polygon points="8,4 4,92 92,96 96,8 			"/>
		</g>
	</g>
	<g transform="translate(825,605) scale(0.55,0.55)">
		<g transform="">
			<g>
				<polygon points="0,17 83,0 100,83 17,100 				"/>
			</g>
		</g>
	</g>
	<g transform="translate(990,605) scale(0.55,0.55)">
		<g transform="">
			<g>
				<polygon points="0,12 88,0 100,88 12,100 				"/>
			</g>
		</g>
	</g>
	<g transform="translate(1045,605) scale(0.55,0.55)">
		<g transform="">
			<polygon points="8,4 4,92 92,96 96,8 			"/>
		</g>
	</g>
	<g transform="translate(1100,605) scale(0.55,0.55)">
		<g transform="">
			<polygon points="8,4 4,92 92,96 96,8 			"/>
		</g>
	</g>
	<g transform="translate(1155,605) scale(0.55,0.55)">
		<g transform="">
			<polygon points="8,4 4,92 92,96 96,8 			"/>
		</g>
	</g>
	<g transform="translate(1210,605) scale(0.55,0.55)">
		<g transform="">
			<polygon points="8,4 4,92 92,96 96,8 			"/>
		</g>
	</g>
	<g transform="translate(1265,605) scale(0.55,0.55)">
		<g transform="">
			<polygon points="8,4 4,92 92,96 96,8 			"/>
		</g>
	</g>
	<g transform="translate(1320,605) scale(0.55,0.55)">
		<g transform="">
			<g>
				<polygon points="15,5 5,85 85,95 95,15 				"/>
			</g>
		</g>
	</g>
	<g transform="translate(1540,605) scale(0.55,0.55)">
		<g transform="">
			<g>
				<polygon points="0,15 85,0 100,85 15,100 				"/>
			</g>
		</g>
	</g>
	<g transform="translate(0,660) scale(0.55,0.55)">
		<g transform="">
			<g>
				<polygon points="0,5 95,0 100,95 5,100 				"/>
			</g>
		</g>
	</g>
	<g transform="translate(110,660) scale(0.55,0.55)">
		<g transform="">
			<g>
				<polygon points="13,0 0,87 87,100 100,13 				"/>
			</g>
		</g>
	</g>
	<g transform="translate(165,660) scale(0.55,0.55)">
		<g transform="">
			<g>
				<polygon points="15,5 5,85 85,95 95,15 				"/>
			</g>
		</g>
	</g>
	<g transform="translate(275,660) scale(0.55,0.55)">
		<g transform="">
			<g>
				<polygon points="0,12 88,0 100,88 12,100 				"/>
			</g>
		</g>
	</g>
	<g transform="translate(330,660) scale(0.55,0.55)">
		<g transform="">
			<g>
				<polygon points="15,5 5,85 85,95 95,15 				"/>
			</g>
		</g>
	</g>
	<g transform="translate(440,660) scale(0.55,0.55)">
		<g transform="">
			<g>
				<polygon points="0,10 90,0 100,90 10,100 				"/>
			</g>
		</g>
	</g>
	<g transform="translate(935,660) scale(0.55,0.55)">
		<g transform="">
			<g>
				<polygon points="5,25 75,5 95,75 25,95 				"/>
			</g>
		</g>
	</g>
	<g transform="translate(990,660) scale(0.55,0.55)">
		<g transform="">
			<polygon points="8,4 4,92 92,96 96,8 			"/>
		</g>
	</g>
	<g transform="translate(1045,660) scale(0.55,0.55)">
		<g transform="">
			<polygon points="8,4 4,92 92,96 96,8 			"/>
		</g>
	</g>
	<g transform="translate(1375,660) scale(0.55,0.55)">
		<g transform="">
			<g>
				<polygon points="5,25 75,5 95,75 25,95 				"/>
			</g>
		</g>
	</g>
	<g transform="translate(1430,660) scale(0.55,0.55)">
		<g transform="">
			<g>
				<polygon points="22,0 0,78 78,100 100,22 				"/>
			</g>
		</g>
	</g>
	<g transform="translate(0,715) scale(0.55,0.55)">
		<g transform="">
			<g>
				<polygon points="0,10 90,0 100,90 10,100 				"/>
			</g>
		</g>
	</g>
	<g transform="translate(275,715) scale(0.55,0.55)">
		<g transform="">
			<polygon points="8,4 4,92 92,96 96,8 			"/>
		</g>
	</g>
	<g transform="translate(385,715) scale(0.55,0.55)">
		<g transform="">
			<g>
				<polygon points="0,15 85,0 100,85 15,100 				"/>
			</g>
		</g>
	</g>
	<g transform="translate(550,715) scale(0.55,0.55)">
		<g transform="">
			<g>
				<polygon points="0,15 85,0 100,85 15,100 				"/>
			</g>
		</g>
	</g>
	<g transform="translate(660,715) scale(0.55,0.55)">
		<g transform="">
			<g>
				<polygon points="0,12 88,0 100,88 12,100 				"/>
			</g>
		</g>
	</g>
	<g transform="translate(715,715) scale(0.55,0.55)">
		<g transform="">
			<g>
				<polygon points="15,5 5,85 85,95 95,15 				"/>
			</g>
		</g>
	</g>
	<g transform="translate(1045,715) scale(0.55,0.55)">
		<g transform="">
			<polygon points="8,4 4,92 92,96 96,8 			"/>
		</g>
	</g>
	<g transform="translate(1210,715) scale(0.55,0.55)">
		<g transform="">
			<g>
				<polygon points="0,5 95,0 100,95 5,100 				"/>
			</g>
		</g>
	</g>
	<g transform="translate(1430,715) scale(0.55,0.55)">
		<g transform="">
			<polygon points="8,4 4,92 92,96 96,8 			"/>
		</g>
	</g>
	<g transform="translate(1485,715) scale(0.55,0.55)">
		<g transform="">
			<polygon points="8,4 4,92 92,96 96,8 			"/>
		</g>
	</g>
	<g transform="translate(1540,715) scale(0.55,0.55)">
		<g transform="">
			<g>
				<polygon points="22,0 0,78 78,100 100,22 				"/>
			</g>
		</g>
	</g>
	<g transform="translate(55,770) scale(0.55,0.55)">
		<g transform="">
			<g>
				<polygon points="0,12 88,0 100,88 12,100 				"/>
			</g>
		</g>
	</g>
	<g transform="translate(110,770) scale(0.55,0.55)">
		<g transform="">
			<g>
				<polygon points="15,5 5,85 85,95 95,15 				"/>
			</g>
		</g>
	</g>
	<g transform="translate(275,770) scale(0.55,0.55)">
		<g transform="">
			<g>
				<polygon points="13,0 0,87 87,100 100,13 				"/>
			</g>
		</g>
	</g>
	<g transform="translate(330,770) scale(0.55,0.55)">
		<g transform="">
			<g>
				<polygon points="15,5 5,85 85,95 95,15 				"/>
			</g>
		</g>
	</g>
	<g transform="translate(440,770) scale(0.55,0.55)">
		<g transform="">
			<g>
				<polygon points="0,12 88,0 100,88 12,100 				"/>
			</g>
		</g>
	</g>
	<g transform="translate(495,770) scale(0.55,0.55)">
		<g transform="">
			<g>
				<polygon points="22,0 0,78 78,100 100,22 				"/>
			</g>
		</g>
	</g>
	<g transform="translate(660,770) scale(0.55,0.55)">
		<g transform="">
			<g>
				<polygon points="0,10 90,0 100,90 10,100 				"/>
			</g>
		</g>
	</g>
	<g transform="translate(770,770) scale(0.55,0.55)">
		<g transform="">
			<g>
				<polygon points="0,15 85,0 100,85 15,100 				"/>
			</g>
		</g>
	</g>
	<g transform="translate(880,770) scale(0.55,0.55)">
		<g transform="">
			<g>
				<polygon points="5,25 75,5 95,75 25,95 				"/>
			</g>
		</g>
	</g>
	<g transform="translate(935,770) scale(0.55,0.55)">
		<g transform="">
			<polygon points="8,4 4,92 92,96 96,8 			"/>
		</g>
	</g>
	<g transform="translate(990,770) scale(0.55,0.55)">
		<g transform="">
			<polygon points="8,4 4,92 92,96 96,8 			"/>
		</g>
	</g>
	<g transform="translate(1045,770) scale(0.55,0.55)">
		<g transform="">
			<polygon points="8,4 4,92 92,96 96,8 			"/>
		</g>
	</g>
	<g transform="translate(1100,770) scale(0.55,0.55)">
		<g transform="">
			<polygon points="8,4 4,92 92,96 96,8 			"/>
		</g>
	</g>
	<g transform="translate(1155,770) scale(0.55,0.55)">
		<g transform="">
			<polygon points="8,4 4,92 92,96 96,8 			"/>
		</g>
	</g>
	<g transform="translate(1210,770) scale(0.55,0.55)">
		<g transform="">
			<polygon points="8,4 4,92 92,96 96,8 			"/>
		</g>
	</g>
	<g transform="translate(1265,770) scale(0.55,0.55)">
		<g transform="">
			<polygon points="8,4 4,92 92,96 96,8 			"/>
		</g>
	</g>
	<g transform="translate(1320,770) scale(0.55,0.55)">
		<g transform="">
			<g>
				<polygon points="22,0 0,78 78,100 100,22 				"/>
			</g>
		</g>
	</g>
	<g transform="translate(1430,770) scale(0.55,0.55)">
		<g transform="">
			<g>
				<polygon points="13,0 0,87 87,100 100,13 				"/>
			</g>
		</g>
	</g>
	<g transform="translate(1485,770) scale(0.55,0.55)">
		<g transform="">
			<polygon points="8,4 4,92 92,96 96,8 			"/>
		</g>
	</g>
	<g transform="translate(1540,770) scale(0.55,0.55)">
		<g transform="">
			<g>
				<polygon points="0,17 83,0 100,83 17,100 				"/>
			</g>
		</g>
	</g>
	<g transform="translate(55,825) scale(0.55,0.55)">
		<g transform="">
			<g>
				<polygon points="0,10 90,0 100,90 10,100 				"/>
			</g>
		</g>
	</g>
	<g transform="translate(165,825) scale(0.55,0.55)">
		<g transform="">
			<g>
				<polygon points="0,12 88,0 100,88 12,100 				"/>
			</g>
		</g>
	</g>
	<g transform="translate(220,825) scale(0.55,0.55)">
		<g transform="">
			<g>
				<polygon points="15,5 5,85 85,95 95,15 				"/>
			</g>
		</g>
	</g>
	<g transform="translate(440,825) scale(0.55,0.55)">
		<g transform="">
			<polygon points="8,4 4,92 92,96 96,8 			"/>
		</g>
	</g>
	<g transform="translate(495,825) scale(0.55,0.55)">
		<g transform="">
			<polygon points="8,4 4,92 92,96 96,8 			"/>
		</g>
	</g>
	<g transform="translate(550,825) scale(0.55,0.55)">
		<g transform="">
			<g>
				<polygon points="22,0 0,78 78,100 100,22 				"/>
			</g>
		</g>
	</g>
	<g transform="translate(715,825) scale(0.55,0.55)">
		<g transform="">
			<g>
				<polygon points="0,15 85,0 100,85 15,100 				"/>
			</g>
		</g>
	</g>
	<g transform="translate(825,825) scale(0.55,0.55)">
		<g transform="">
			<g>
				<polygon points="0,15 85,0 100,85 15,100 				"/>
			</g>
		</g>
	</g>
	<g transform="translate(990,825) scale(0.55,0.55)">
		<g transform="">
			<polygon points="8,4 4,92 92,96 96,8 			"/>
		</g>
	</g>
	<g transform="translate(1100,825) scale(0.55,0.55)">
		<g transform="">
			<polygon points="8,4 4,92 92,96 96,8 			"/>
		</g>
	</g>
	<g transform="translate(1155,825) scale(0.55,0.55)">
		<g transform="">
			<polygon points="8,4 4,92 92,96 96,8 			"/>
		</g>
	</g>
	<g transform="translate(1210,825) scale(0.55,0.55)">
		<g transform="">
			<g>
				<polygon points="0,17 83,0 100,83 17,100 				"/>
			</g>
		</g>
	</g>
	<g transform="translate(1320,825) scale(0.55,0.55)">
		<g transform="">
			<polygon points="8,4 4,92 92,96 96,8 			"/>
		</g>
	</g>
	<g transform="translate(1485,825) scale(0.55,0.55)">
		<g transform="">
			<polygon points="8,4 4,92 92,96 96,8 			"/>
		</g>
	</g>
	<g transform="translate(165,880) scale(0.55,0.55)">
		<g transform="">
			<g>
				<polygon points="0,10 90,0 100,90 10,100 				"/>
			</g>
		</g>
	</g>
	<g transform="translate(275,880) scale(0.55,0.55)">
		<g transform="">
			<g>
				<polygon points="0,12 88,0 100,88 12,100 				"/>
			</g>
		</g>
	</g>
	<g transform="translate(330,880) scale(0.55,0.55)">
		<g transform="">
			<g>
				<polygon points="15,5 5,85 85,95 95,15 				"/>
			</g>
		</g>
	</g>
	<g transform="translate(440,880) scale(0.55,0.55)">
		<g transform="">
			<polygon points="8,4 4,92 92,96 96,8 			"/>
		</g>
	</g>
	<g transform="translate(495,880) scale(0.55,0.55)">
		<g transform="">
			<polygon points="8,4 4,92 92,96 96,8 			"/>
		</g>
	</g>
	<g transform="translate(550,880) scale(0.55,0.55)">
		<g transform="">
			<polygon points="8,4 4,92 92,96 96,8 			"/>
		</g>
	</g>
	<g transform="translate(605,880) scale(0.55,0.55)">
		<g transform="">
			<g>
				<polygon points="15,5 5,85 85,95 95,15 				"/>
			</g>
		</g>
	</g>
	<g transform="translate(880,880) scale(0.55,0.55)">
		<g transform="">
			<g>
				<polygon points="0,15 85,0 100,85 15,100 				"/>
			</g>
		</g>
	</g>
	<g transform="translate(990,880) scale(0.55,0.55)">
		<g transform="">
			<polygon points="8,4 4,92 92,96 96,8 			"/>
		</g>
	</g>
	<g transform="translate(1045,880) scale(0.55,0.55)">
		<g transform="">
			<polygon points="8,4 4,92 92,96 96,8 			"/>
		</g>
	</g>
	<g transform="translate(1100,880) scale(0.55,0.55)">
		<g transform="">
			<polygon points="8,4 4,92 92,96 96,8 			"/>
		</g>
	</g>
	<g transform="translate(1155,880) scale(0.55,0.55)">
		<g transform="">
			<g>
				<polygon points="0,17 83,0 100,83 17,100 				"/>
			</g>
		</g>
	</g>
	<g transform="translate(1265,880) scale(0.55,0.55)">
		<g transform="">
			<g>
				<polygon points="0,12 88,0 100,88 12,100 				"/>
			</g>
		</g>
	</g>
	<g transform="translate(1320,880) scale(0.55,0.55)">
		<g transform="">
			<polygon points="8,4 4,92 92,96 96,8 			"/>
		</g>
	</g>
	<g transform="translate(1375,880) scale(0.55,0.55)">
		<g transform="">
			<g>
				<polygon points="22,0 0,78 78,100 100,22 				"/>
			</g>
		</g>
	</g>
	<g transform="translate(1485,880) scale(0.55,0.55)">
		<g transform="">
			<polygon points="8,4 4,92 92,96 96,8 			"/>
		</g>
	</g>
	<g transform="translate(110,935) scale(0.55,0.55)">
		<g transform="">
			<g>
				<polygon points="0,5 95,0 100,95 5,100 				"/>
			</g>
		</g>
	</g>
	<g transform="translate(220,935) scale(0.55,0.55)">
		<g transform="">
			<g>
				<polygon points="5,25 75,5 95,75 25,95 				"/>
			</g>
		</g>
	</g>
	<g transform="translate(275,935) scale(0.55,0.55)">
		<g transform="">
			<g>
				<polygon points="0,17 83,0 100,83 17,100 				"/>
			</g>
		</g>
	</g>
	<g transform="translate(385,935) scale(0.55,0.55)">
		<g transform="">
			<g>
				<polygon points="5,25 75,5 95,75 25,95 				"/>
			</g>
		</g>
	</g>
	<g transform="translate(440,935) scale(0.55,0.55)">
		<g transform="">
			<polygon points="8,4 4,92 92,96 96,8 			"/>
		</g>
	</g>
	<g transform="translate(495,935) scale(0.55,0.55)">
		<g transform="">
			<g>
				<polygon points="0,17 83,0 100,83 17,100 				"/>
			</g>
		</g>
	</g>
	<g transform="translate(660,935) scale(0.55,0.55)">
		<g transform="">
			<g>
				<polygon points="5,25 75,5 95,75 25,95 				"/>
			</g>
		</g>
	</g>
	<g transform="translate(715,935) scale(0.55,0.55)">
		<g transform="">
			<g>
				<polygon points="15,5 5,85 85,95 95,15 				"/>
			</g>
		</g>
	</g>
	<g transform="translate(825,935) scale(0.55,0.55)">
		<g transform="">
			<g>
				<polygon points="0,5 95,0 100,95 5,100 				"/>
			</g>
		</g>
	</g>
	<g transform="translate(990,935) scale(0.55,0.55)">
		<g transform="">
			<g>
				<polygon points="0,10 90,0 100,90 10,100 				"/>
			</g>
		</g>
	</g>
	<g transform="translate(1100,935) scale(0.55,0.55)">
		<g transform="">
			<polygon points="8,4 4,92 92,96 96,8 			"/>
		</g>
	</g>
	<g transform="translate(1265,935) scale(0.55,0.55)">
		<g transform="">
			<polygon points="8,4 4,92 92,96 96,8 			"/>
		</g>
	</g>
	<g transform="translate(1375,935) scale(0.55,0.55)">
		<g transform="">
			<g>
				<polygon points="13,0 0,87 87,100 100,13 				"/>
			</g>
		</g>
	</g>
	<g transform="translate(1430,935) scale(0.55,0.55)">
		<g transform="">
			<polygon points="8,4 4,92 92,96 96,8 			"/>
		</g>
	</g>
	<g transform="translate(1485,935) scale(0.55,0.55)">
		<g transform="">
			<g>
				<polygon points="0,17 83,0 100,83 17,100 				"/>
			</g>
		</g>
	</g>
	<g transform="translate(0,990) scale(0.55,0.55)">
		<g transform="">
			<g>
				<polygon points="0,15 85,0 100,85 15,100 				"/>
			</g>
		</g>
	</g>
	<g transform="translate(110,990) scale(0.55,0.55)">
		<g transform="">
			<g>
				<polygon points="0,10 90,0 100,90 10,100 				"/>
			</g>
		</g>
	</g>
	<g transform="translate(330,990) scale(0.55,0.55)">
		<g transform="">
			<g>
				<polygon points="0,15 85,0 100,85 15,100 				"/>
			</g>
		</g>
	</g>
	<g transform="translate(605,990) scale(0.55,0.55)">
		<g transform="">
			<g>
				<polygon points="0,15 85,0 100,85 15,100 				"/>
			</g>
		</g>
	</g>
	<g transform="translate(825,990) scale(0.55,0.55)">
		<g transform="">
			<g>
				<polygon points="0,10 90,0 100,90 10,100 				"/>
			</g>
		</g>
	</g>
	<g transform="translate(935,990) scale(0.55,0.55)">
		<g transform="">
			<g>
				<polygon points="0,5 95,0 100,95 5,100 				"/>
			</g>
		</g>
	</g>
	<g transform="translate(1100,990) scale(0.55,0.55)">
		<g transform="">
			<g>
				<polygon points="0,10 90,0 100,90 10,100 				"/>
			</g>
		</g>
	</g>
	<g transform="translate(1265,990) scale(0.55,0.55)">
		<g transform="">
			<polygon points="8,4 4,92 92,96 96,8 			"/>
		</g>
	</g>
	<g transform="translate(1320,990) scale(0.55,0.55)">
		<g transform="">
			<g>
				<polygon points="22,0 0,78 78,100 100,22 				"/>
			</g>
		</g>
	</g>
	<g transform="translate(1430,990) scale(0.55,0.55)">
		<g transform="">
			<polygon points="8,4 4,92 92,96 96,8 			"/>
		</g>
	</g>
	<g transform="translate(220,1045) scale(0.55,0.55)">
		<g transform="">
			<g>
				<polygon points="0,12 88,0 100,88 12,100 				"/>
			</g>
		</g>
	</g>
	<g transform="translate(275,1045) scale(0.55,0.55)">
		<g transform="">
			<g>
				<polygon points="22,0 0,78 78,100 100,22 				"/>
			</g>
		</g>
	</g>
	<g transform="translate(550,1045) scale(0.55,0.55)">
		<g transform="">
			<g>
				<polygon points="0,5 95,0 100,95 5,100 				"/>
			</g>
		</g>
	</g>
	<g transform="translate(935,1045) scale(0.55,0.55)">
		<g transform="">
			<polygon points="8,4 4,92 92,96 96,8 			"/>
		</g>
	</g>
	<g transform="translate(990,1045) scale(0.55,0.55)">
		<g transform="">
			<polygon points="8,4 4,92 92,96 96,8 			"/>
		</g>
	</g>
	<g transform="translate(1045,1045) scale(0.55,0.55)">
		<g transform="">
			<g>
				<polygon points="15,5 5,85 85,95 95,15 				"/>
			</g>
		</g>
	</g>
	<g transform="translate(1210,1045) scale(0.55,0.55)">
		<g transform="">
			<g>
				<polygon points="0,12 88,0 100,88 12,100 				"/>
			</g>
		</g>
	</g>
	<g transform="translate(1265,1045) scale(0.55,0.55)">
		<g transform="">
			<polygon points="8,4 4,92 92,96 96,8 			"/>
		</g>
	</g>
	<g transform="translate(1320,1045) scale(0.55,0.55)">
		<g transform="">
			<polygon points="8,4 4,92 92,96 96,8 			"/>
		</g>
	</g>
	<g transform="translate(1430,1045) scale(0.55,0.55)">
		<g transform="">
			<polygon points="8,4 4,92 92,96 96,8 			"/>
		</g>
	</g>
	<g transform="translate(55,1100) scale(0.55,0.55)">
		<g transform="">
			<g>
				<polygon points="5,25 75,5 95,75 25,95 				"/>
			</g>
		</g>
	</g>
	<g transform="translate(110,1100) scale(0.55,0.55)">
		<g transform="">
			<g>
				<polygon points="15,5 5,85 85,95 95,15 				"/>
			</g>
		</g>
	</g>
	<g transform="translate(220,1100) scale(0.55,0.55)">
		<g transform="">
			<g>
				<polygon points="13,0 0,87 87,100 100,13 				"/>
			</g>
		</g>
	</g>
	<g transform="translate(275,1100) scale(0.55,0.55)">
		<g transform="">
			<polygon points="8,4 4,92 92,96 96,8 			"/>
		</g>
	</g>
	<g transform="translate(330,1100) scale(0.55,0.55)">
		<g transform="">
			<polygon points="8,4 4,92 92,96 96,8 			"/>
		</g>
	</g>
	<g transform="translate(385,1100) scale(0.55,0.55)">
		<g transform="">
			<polygon points="8,4 4,92 92,96 96,8 			"/>
		</g>
	</g>
	<g transform="translate(440,1100) scale(0.55,0.55)">
		<g transform="">
			<polygon points="8,4 4,92 92,96 96,8 			"/>
		</g>
	</g>
	<g transform="translate(495,1100) scale(0.55,0.55)">
		<g transform="">
			<polygon points="8,4 4,92 92,96 96,8 			"/>
		</g>
	</g>
	<g transform="translate(550,1100) scale(0.55,0.55)">
		<g transform="">
			<g>
				<polygon points="0,17 83,0 100,83 17,100 				"/>
			</g>
		</g>
	</g>
	<g transform="translate(715,1100) scale(0.55,0.55)">
		<g transform="">
			<g>
				<polygon points="0,5 95,0 100,95 5,100 				"/>
			</g>
		</g>
	</g>
	<g transform="translate(935,1100) scale(0.55,0.55)">
		<g transform="">
			<g>
				<polygon points="13,0 0,87 87,100 100,13 				"/>
			</g>
		</g>
	</g>
	<g transform="translate(990,1100) scale(0.55,0.55)">
		<g transform="">
			<polygon points="8,4 4,92 92,96 96,8 			"/>
		</g>
	</g>
	<g transform="translate(1100,1100) scale(0.55,0.55)">
		<g transform="">
			<g>
				<polygon points="0,12 88,0 100,88 12,100 				"/>
			</g>
		</g>
	</g>
	<g transform="translate(1155,1100) scale(0.55,0.55)">
		<g transform="">
			<polygon points="8,4 4,92 92,96 96,8 			"/>
		</g>
	</g>
	<g transform="translate(1210,1100) scale(0.55,0.55)">
		<g transform="">
			<polygon points="8,4 4,92 92,96 96,8 			"/>
		</g>
	</g>
	<g transform="translate(1265,1100) scale(0.55,0.55)">
		<g transform="">
			<polygon points="8,4 4,92 92,96 96,8 			"/>
		</g>
	</g>
	<g transform="translate(1320,1100) scale(0.55,0.55)">
		<g transform="">
			<polygon points="8,4 4,92 92,96 96,8 			"/>
		</g>
	</g>
	<g transform="translate(1375,1100) scale(0.55,0.55)">
		<g transform="">
			<polygon points="8,4 4,92 92,96 96,8 			"/>
		</g>
	</g>
	<g transform="translate(1430,1100) scale(0.55,0.55)">
		<g transform="">
			<polygon points="8,4 4,92 92,96 96,8 			"/>
		</g>
	</g>
	<g transform="translate(440,1155) scale(0.55,0.55)">
		<g transform="">
			<polygon points="8,4 4,92 92,96 96,8 			"/>
		</g>
	</g>
	<g transform="translate(495,1155) scale(0.55,0.55)">
		<g transform="">
			<g>
				<polygon points="0,17 83,0 100,83 17,100 				"/>
			</g>
		</g>
	</g>
	<g transform="translate(715,1155) scale(0.55,0.55)">
		<g transform="">
			<polygon points="8,4 4,92 92,96 96,8 			"/>
		</g>
	</g>
	<g transform="translate(770,1155) scale(0.55,0.55)">
		<g transform="">
			<g>
				<polygon points="15,5 5,85 85,95 95,15 				"/>
			</g>
		</g>
	</g>
	<g transform="translate(880,1155) scale(0.55,0.55)">
		<g transform="">
			<g>
				<polygon points="0,5 95,0 100,95 5,100 				"/>
			</g>
		</g>
	</g>
	<g transform="translate(990,1155) scale(0.55,0.55)">
		<g transform="">
			<polygon points="8,4 4,92 92,96 96,8 			"/>
		</g>
	</g>
	<g transform="translate(1100,1155) scale(0.55,0.55)">
		<g transform="">
			<polygon points="8,4 4,92 92,96 96,8 			"/>
		</g>
	</g>
	<g transform="translate(1320,1155) scale(0.55,0.55)">
		<g transform="">
			<polygon points="8,4 4,92 92,96 96,8 			"/>
		</g>
	</g>
	<g transform="translate(1375,1155) scale(0.55,0.55)">
		<g transform="">
			<polygon points="8,4 4,92 92,96 96,8 			"/>
		</g>
	</g>
	<g transform="translate(1430,1155) scale(0.55,0.55)">
		<g transform="">
			<polygon points="8,4 4,92 92,96 96,8 			"/>
		</g>
	</g>
	<g transform="translate(1485,1155) scale(0.55,0.55)">
		<g transform="">
			<polygon points="8,4 4,92 92,96 96,8 			"/>
		</g>
	</g>
	<g transform="translate(1540,1155) scale(0.55,0.55)">
		<g transform="">
			<g>
				<polygon points="15,5 5,85 85,95 95,15 				"/>
			</g>
		</g>
	</g>
	<g transform="translate(440,1210) scale(0.55,0.55)">
		<g transform="">
			<polygon points="8,4 4,92 92,96 96,8 			"/>
		</g>
	</g>
	<g transform="translate(550,1210) scale(0.55,0.55)">
		<g transform="">
			<g>
				<polygon points="0,15 85,0 100,85 15,100 				"/>
			</g>
		</g>
	</g>
	<g transform="translate(715,1210) scale(0.55,0.55)">
		<g transform="">
			<g>
				<polygon points="0,10 90,0 100,90 10,100 				"/>
			</g>
		</g>
	</g>
	<g transform="translate(880,1210) scale(0.55,0.55)">
		<g transform="">
			<polygon points="8,4 4,92 92,96 96,8 			"/>
		</g>
	</g>
	<g transform="translate(935,1210) scale(0.55,0.55)">
		<g transform="">
			<polygon points="8,4 4,92 92,96 96,8 			"/>
		</g>
	</g>
	<g transform="translate(990,1210) scale(0.55,0.55)">
		<g transform="">
			<polygon points="8,4 4,92 92,96 96,8 			"/>
		</g>
	</g>
	<g transform="translate(1045,1210) scale(0.55,0.55)">
		<g transform="">
			<polygon points="8,4 4,92 92,96 96,8 			"/>
		</g>
	</g>
	<g transform="translate(1100,1210) scale(0.55,0.55)">
		<g transform="">
			<polygon points="8,4 4,92 92,96 96,8 			"/>
		</g>
	</g>
	<g transform="translate(1210,1210) scale(0.55,0.55)">
		<g transform="">
			<g>
				<polygon points="0,15 85,0 100,85 15,100 				"/>
			</g>
		</g>
	</g>
	<g transform="translate(1320,1210) scale(0.55,0.55)">
		<g transform="">
			<polygon points="8,4 4,92 92,96 96,8 			"/>
		</g>
	</g>
	<g transform="translate(1375,1210) scale(0.55,0.55)">
		<g transform="">
			<polygon points="8,4 4,92 92,96 96,8 			"/>
		</g>
	</g>
	<g transform="translate(1485,1210) scale(0.55,0.55)">
		<g transform="">
			<polygon points="8,4 4,92 92,96 96,8 			"/>
		</g>
	</g>
	<g transform="translate(440,1265) scale(0.55,0.55)">
		<g transform="">
			<g>
				<polygon points="0,10 90,0 100,90 10,100 				"/>
			</g>
		</g>
	</g>
	<g transform="translate(660,1265) scale(0.55,0.55)">
		<g transform="">
			<g>
				<polygon points="0,15 85,0 100,85 15,100 				"/>
			</g>
		</g>
	</g>
	<g transform="translate(880,1265) scale(0.55,0.55)">
		<g transform="">
			<g>
				<polygon points="0,10 90,0 100,90 10,100 				"/>
			</g>
		</g>
	</g>
	<g transform="translate(990,1265) scale(0.55,0.55)">
		<g transform="">
			<g>
				<polygon points="0,10 90,0 100,90 10,100 				"/>
			</g>
		</g>
	</g>
	<g transform="translate(1100,1265) scale(0.55,0.55)">
		<g transform="">
			<polygon points="8,4 4,92 92,96 96,8 			"/>
		</g>
	</g>
	<g transform="translate(1320,1265) scale(0.55,0.55)">
		<g transform="">
			<polygon points="8,4 4,92 92,96 96,8 			"/>
		</g>
	</g>
	<g transform="translate(1375,1265) scale(0.55,0.55)">
		<g transform="">
			<g>
				<polygon points="0,17 83,0 100,83 17,100 				"/>
			</g>
		</g>
	</g>
	<g transform="translate(1485,1265) scale(0.55,0.55)">
		<g transform="">
			<polygon points="8,4 4,92 92,96 96,8 			"/>
		</g>
	</g>
	<g transform="translate(1540,1265) scale(0.55,0.55)">
		<g transform="">
			<g>
				<polygon points="15,5 5,85 85,95 95,15 				"/>
			</g>
		</g>
	</g>
	<g transform="translate(495,1320) scale(0.55,0.55)">
		<g transform="">
			<g>
				<polygon points="0,15 85,0 100,85 15,100 				"/>
			</g>
		</g>
	</g>
	<g transform="translate(605,1320) scale(0.55,0.55)">
		<g transform="">
			<g>
				<polygon points="0,15 85,0 100,85 15,100 				"/>
			</g>
		</g>
	</g>
	<g transform="translate(770,1320) scale(0.55,0.55)">
		<g transform="">
			<g>
				<polygon points="0,12 88,0 100,88 12,100 				"/>
			</g>
		</g>
	</g>
	<g transform="translate(825,1320) scale(0.55,0.55)">
		<g transform="">
			<g>
				<polygon points="22,0 0,78 78,100 100,22 				"/>
			</g>
		</g>
	</g>
	<g transform="translate(935,1320) scale(0.55,0.55)">
		<g transform="">
			<g>
				<polygon points="0,5 95,0 100,95 5,100 				"/>
			</g>
		</g>
	</g>
	<g transform="translate(1100,1320) scale(0.55,0.55)">
		<g transform="">
			<g>
				<polygon points="13,0 0,87 87,100 100,13 				"/>
			</g>
		</g>
	</g>
	<g transform="translate(1155,1320) scale(0.55,0.55)">
		<g transform="">
			<polygon points="8,4 4,92 92,96 96,8 			"/>
		</g>
	</g>
	<g transform="translate(1210,1320) scale(0.55,0.55)">
		<g transform="">
			<polygon points="8,4 4,92 92,96 96,8 			"/>
		</g>
	</g>
	<g transform="translate(1265,1320) scale(0.55,0.55)">
		<g transform="">
			<polygon points="8,4 4,92 92,96 96,8 			"/>
		</g>
	</g>
	<g transform="translate(1320,1320) scale(0.55,0.55)">
		<g transform="">
			<polygon points="8,4 4,92 92,96 96,8 			"/>
		</g>
	</g>
	<g transform="translate(1430,1320) scale(0.55,0.55)">
		<g transform="">
			<g>
				<polygon points="5,25 75,5 95,75 25,95 				"/>
			</g>
		</g>
	</g>
	<g transform="translate(1485,1320) scale(0.55,0.55)">
		<g transform="">
			<g>
				<polygon points="0,17 83,0 100,83 17,100 				"/>
			</g>
		</g>
	</g>
	<g transform="translate(440,1375) scale(0.55,0.55)">
		<g transform="">
			<g>
				<polygon points="0,5 95,0 100,95 5,100 				"/>
			</g>
		</g>
	</g>
	<g transform="translate(660,1375) scale(0.55,0.55)">
		<g transform="">
			<g>
				<polygon points="0,15 85,0 100,85 15,100 				"/>
			</g>
		</g>
	</g>
	<g transform="translate(770,1375) scale(0.55,0.55)">
		<g transform="">
			<g>
				<polygon points="13,0 0,87 87,100 100,13 				"/>
			</g>
		</g>
	</g>
	<g transform="translate(825,1375) scale(0.55,0.55)">
		<g transform="">
			<polygon points="8,4 4,92 92,96 96,8 			"/>
		</g>
	</g>
	<g transform="translate(880,1375) scale(0.55,0.55)">
		<g transform="">
			<polygon points="8,4 4,92 92,96 96,8 			"/>
		</g>
	</g>
	<g transform="translate(935,1375) scale(0.55,0.55)">
		<g transform="">
			<polygon points="8,4 4,92 92,96 96,8 			"/>
		</g>
	</g>
	<g transform="translate(1045,1375) scale(0.55,0.55)">
		<g transform="">
			<g>
				<polygon points="0,5 95,0 100,95 5,100 				"/>
			</g>
		</g>
	</g>
	<g transform="translate(1155,1375) scale(0.55,0.55)">
		<g transform="">
			<g>
				<polygon points="0,10 90,0 100,90 10,100 				"/>
			</g>
		</g>
	</g>
	<g transform="translate(1320,1375) scale(0.55,0.55)">
		<g transform="">
			<g>
				<polygon points="13,0 0,87 87,100 100,13 				"/>
			</g>
		</g>
	</g>
	<g transform="translate(1375,1375) scale(0.55,0.55)">
		<g transform="">
			<g>
				<polygon points="15,5 5,85 85,95 95,15 				"/>
			</g>
		</g>
	</g>
	<g transform="translate(1540,1375) scale(0.55,0.55)">
		<g transform="">
			<g>
				<polygon points="0,5 95,0 100,95 5,100 				"/>
			</g>
		</g>
	</g>
	<g transform="translate(440,1430) scale(0.55,0.55)">
		<g transform="">
			<g>
				<polygon points="0,10 90,0 100,90 10,100 				"/>
			</g>
		</g>
	</g>
	<g transform="translate(605,1430) scale(0.55,0.55)">
		<g transform="">
			<g>
				<polygon points="0,5 95,0 100,95 5,100 				"/>
			</g>
		</g>
	</g>
	<g transform="translate(715,1430) scale(0.55,0.55)">
		<g transform="">
			<g>
				<polygon points="0,5 95,0 100,95 5,100 				"/>
			</g>
		</g>
	</g>
	<g transform="translate(880,1430) scale(0.55,0.55)">
		<g transform="">
			<polygon points="8,4 4,92 92,96 96,8 			"/>
		</g>
	</g>
	<g transform="translate(935,1430) scale(0.55,0.55)">
		<g transform="">
			<g>
				<polygon points="0,17 83,0 100,83 17,100 				"/>
			</g>
		</g>
	</g>
	<g transform="translate(1045,1430) scale(0.55,0.55)">
		<g transform="">
			<g>
				<polygon points="0,10 90,0 100,90 10,100 				"/>
			</g>
		</g>
	</g>
	<g transform="translate(1265,1430) scale(0.55,0.55)">
		<g transform="">
			<g>
				<polygon points="0,5 95,0 100,95 5,100 				"/>
			</g>
		</g>
	</g>
	<g transform="translate(1430,1430) scale(0.55,0.55)">
		<g transform="">
			<g>
				<polygon points="0,15 85,0 100,85 15,100 				"/>
			</g>
		</g>
	</g>
	<g transform="translate(1540,1430) scale(0.55,0.55)">
		<g transform="">
			<g>
				<polygon points="0,10 90,0 100,90 10,100 				"/>
			</g>
		</g>
	</g>
	<g transform="translate(550,1485) scale(0.55,0.55)">
		<g transform="">
			<g>
				<polygon points="5,25 75,5 95,75 25,95 				"/>
			</g>
		</g>
	</g>
	<g transform="translate(605,1485) scale(0.55,0.55)">
		<g transform="">
			<g>
				<polygon points="0,17 83,0 100,83 17,100 				"/>
			</g>
		</g>
	</g>
	<g transform="translate(715,1485) scale(0.55,0.55)">
		<g transform="">
			<polygon points="8,4 4,92 92,96 96,8 			"/>
		</g>
	</g>
	<g transform="translate(880,1485) scale(0.55,0.55)">
		<g transform="">
			<g>
				<polygon points="0,10 90,0 100,90 10,100 				"/>
			</g>
		</g>
	</g>
	<g transform="translate(990,1485) scale(0.55,0.55)">
		<g transform="">
			<g>
				<polygon points="0,15 85,0 100,85 15,100 				"/>
			</g>
		</g>
	</g>
	<g transform="translate(1100,1485) scale(0.55,0.55)">
		<g transform="">
			<g>
				<polygon points="0,5 95,0 100,95 5,100 				"/>
			</g>
		</g>
	</g>
	<g transform="translate(1265,1485) scale(0.55,0.55)">
		<g transform="">
			<g>
				<polygon points="0,10 90,0 100,90 10,100 				"/>
			</g>
		</g>
	</g>
	<g transform="translate(1375,1485) scale(0.55,0.55)">
		<g transform="">
			<g>
				<polygon points="0,5 95,0 100,95 5,100 				"/>
			</g>
		</g>
	</g>
	<g transform="translate(1485,1485) scale(0.55,0.55)">
		<g transform="">
			<g>
				<polygon points="0,5 95,0 100,95 5,100 				"/>
			</g>
		</g>
	</g>
	<g transform="translate(440,1540) scale(0.55,0.55)">
		<g transform="">
			<g>
				<polygon points="5,25 75,5 95,75 25,95 				"/>
			</g>
		</g>
	</g>
	<g transform="translate(495,1540) scale(0.55,0.55)">
		<g transform="">
			<g>
				<polygon points="15,5 5,85 85,95 95,15 				"/>
			</g>
		</g>
	</g>
	<g transform="translate(715,1540) scale(0.55,0.55)">
		<g transform="">
			<g>
				<polygon points="0,10 90,0 100,90 10,100 				"/>
			</g>
		</g>
	</g>
	<g transform="translate(825,1540) scale(0.55,0.55)">
		<g transform="">
			<g>
				<polygon points="0,15 85,0 100,85 15,100 				"/>
			</g>
		</g>
	</g>
	<g transform="translate(1045,1540) scale(0.55,0.55)">
		<g transform="">
			<g>
				<polygon points="5,25 75,5 95,75 25,95 				"/>
			</g>
		</g>
	</g>
	<g transform="translate(1100,1540) scale(0.55,0.55)">
		<g transform="">
			<polygon points="8,4 4,92 92,96 96,8 			"/>
		</g>
	</g>
	<g transform="translate(1155,1540) scale(0.55,0.55)">
		<g transform="">
			<g>
				<polygon points="15,5 5,85 85,95 95,15 				"/>
			</g>
		</g>
	</g>
	<g transform="translate(1375,1540) scale(0.55,0.55)">
		<g transform="">
			<g>
				<polygon points="0,10 90,0 100,90 10,100 				"/>
			</g>
		</g>
	</g>
	<g transform="translate(1485,1540) scale(0.55,0.55)">
		<g transform="">
			<g>
				<polygon points="0,10 90,0 100,90 10,100 				"/>
			</g>
		</g>
	</g>
	<g transform="translate(0,0) scale(3.85, 3.85)">
		<g transform="">
			<g>
				<path d="M85,0H15H0v15v70v15h15h70h15V85V15V0H85z M85,85H15V15h70V85z"/>
			</g>
		</g>
	</g>
	<g transform="translate(1210,0) scale(3.85, 3.85)">
		<g transform="">
			<g>
				<path d="M85,0H15H0v15v70v15h15h70h15V85V15V0H85z M85,85H15V15h70V85z"/>
			</g>
		</g>
	</g>
	<g transform="translate(0,1210) scale(3.85, 3.85)">
		<g transform="">
			<g>
				<path d="M85,0H15H0v15v70v15h15h70h15V85V15V0H85z M85,85H15V15h70V85z"/>
			</g>
		</g>
	</g>
	<g transform="translate(110,110) scale(1.65, 1.65)">
		<g transform="">
			<rect x="0" y="0" width="100" height="100"/>
		</g>
	</g>
	<g transform="translate(1320,110) scale(1.65, 1.65)">
		<g transform="">
			<rect x="0" y="0" width="100" height="100"/>
		</g>
	</g>
	<g transform="translate(110,1320) scale(1.65, 1.65)">
		<g transform="">
			<rect x="0" y="0" width="100" height="100"/>
		</g>
	</g>
</g>
</svg>
